Coordinates
version=1
nRows=60
nColumns=12
inDegrees=yes

Units are S.I. units (second, meters, Newtons, ...)
Angles are in degrees

endheader
time	SC_y	SC_z	SC_x	AC_y	AC_z	AC_x	GH_y	GH_z	GH_yy	EL_x	PS_y
       0.0              -54.07          28.25         0.5918          30.44         -17.61          -5.35         -178.7          60.85         -164.2          64.87          81.22
   0.01593              -54.07          28.25          0.604          30.44         -17.61          -5.35         -178.7          60.86         -164.2          64.87          81.21
   0.03186              -54.07          28.25          0.617          30.44         -17.61          -5.35         -178.6          60.86         -164.2          64.88           81.2
   0.04779              -54.07          28.26         0.6309          30.44         -17.61          -5.35         -178.6          60.86         -164.1          64.88          81.19
   0.06372              -54.07          28.26         0.6456          30.44         -17.61         -5.351         -178.6          60.87         -164.1          64.89          81.17
   0.07966              -54.07          28.26         0.6613          30.44         -17.61         -5.351         -178.5          60.87         -164.1           64.9          81.16
   0.09559              -54.07          28.26         0.6781          30.45         -17.61         -5.351         -178.5          60.88         -164.0           64.9          81.14
    0.1115              -54.07          28.26         0.6961          30.45         -17.61         -5.351         -178.5          60.88         -164.0          64.91          81.13
    0.1274              -54.07          28.26         0.7153          30.45         -17.61         -5.352         -178.4          60.89         -164.0          64.92          81.11
    0.1434              -54.07          28.27         0.7359          30.45         -17.61         -5.352         -178.4           60.9         -163.9          64.93          81.09
    0.1593              -54.07          28.27          0.758          30.46         -17.61         -5.352         -178.3           60.9         -163.9          64.94          81.07
    0.1752              -54.07          28.27         0.7819          30.46         -17.61         -5.353         -178.3          60.91         -163.8          64.95          81.05
    0.1912              -54.07          28.27         0.8076          30.46         -17.61         -5.353         -178.2          60.92         -163.8          64.96          81.03
    0.2071              -54.07          28.28         0.8353          30.47         -17.61         -5.354         -178.2          60.93         -163.7          64.98           81.0
     0.223              -54.07          28.28         0.8653          30.47         -17.62         -5.354         -178.1          60.94         -163.7          64.99          80.98
     0.239              -54.07          28.28         0.8979          30.48         -17.62         -5.355         -178.0          60.95         -163.6           65.0          80.95
    0.2549              -54.07          28.29         0.9333          30.48         -17.62         -5.355         -177.9          60.96         -163.5          65.02          80.92
    0.2708              -54.07          28.29         0.9718          30.49         -17.62         -5.356         -177.9          60.97         -163.4          65.04          80.88
    0.2868              -54.07          28.29          1.014          30.49         -17.62         -5.356         -177.8          60.98         -163.4          65.06          80.85
    0.3027              -54.07           28.3           1.06           30.5         -17.62         -5.357         -177.7           61.0         -163.3          65.08          80.81
    0.3186              -54.08           28.3          1.111           30.5         -17.62         -5.358         -177.6          61.01         -163.2           65.1          80.76
    0.3346              -54.08          28.31          1.166          30.51         -17.62         -5.359         -177.4          61.03         -163.1          65.13          80.71
    0.3505              -54.08          28.32          1.228          30.52         -17.62          -5.36         -177.3          61.05         -162.9          65.15          80.66
    0.3664              -54.08          28.32          1.296          30.53         -17.62         -5.361         -177.2          61.07         -162.8          65.18           80.6
    0.3823              -54.08          28.33          1.372          30.54         -17.62         -5.362         -177.0          61.09         -162.6          65.22          80.53
    0.3983              -54.08          28.34          1.456          30.55         -17.62         -5.363         -176.8          61.12         -162.5          65.26          80.46
    0.4142              -54.08          28.35          1.551          30.56         -17.62         -5.365         -176.6          61.15         -162.3           65.3          80.37
    0.4301              -54.08          28.36          1.658          30.58         -17.62         -5.367         -176.4          61.18         -162.1          65.35          80.28
    0.4461              -54.08          28.37          1.778          30.59         -17.62         -5.369         -176.1          61.22         -161.8           65.4          80.17
     0.462              -54.08          28.38          1.915          30.61         -17.63         -5.371         -175.8          61.26         -161.6          65.46          80.05
    0.4779              -54.09           28.4          2.071          30.63         -17.63         -5.373         -175.5          61.31         -161.3          65.53          79.91
    0.4939              -54.09          28.42           2.25          30.65         -17.63         -5.376         -175.1          61.37         -160.9          65.62          79.75
    0.5098              -54.09          28.44          2.457          30.68         -17.63         -5.379         -174.6          61.43         -160.5          65.71          79.57
    0.5257              -54.09          28.46          2.697          30.71         -17.63         -5.383         -174.1          61.51         -160.0          65.82          79.36
    0.5417               -54.1          28.49          2.978          30.75         -17.64         -5.388         -173.5          61.59         -159.5          65.94          79.11
    0.5576               -54.1          28.53          3.309          30.79         -17.64         -5.393         -172.8           61.7         -158.8          66.09          78.82
    0.5735               -54.1          28.57          3.703          30.84         -17.64         -5.399         -171.9          61.82         -158.0          66.27          78.47
    0.5895              -54.11          28.61          4.175           30.9         -17.65         -5.406         -170.9          61.96         -157.1          66.49          78.05
    0.6054              -54.12          28.67          4.746          30.98         -17.65         -5.415         -169.6          62.14         -155.9          66.74          77.55
    0.6213              -54.12          28.74          5.444          31.07         -17.66         -5.426         -168.1          62.36         -154.6          67.06          76.93
    0.6372              -54.13          28.83          6.305          31.18         -17.67          -5.44         -166.2          62.63         -152.8          67.45          76.17
    0.6532              -54.14          28.94          7.378          31.32         -17.68         -5.457         -163.9          62.96         -150.7          67.93          75.22
    0.6691              -54.16          29.07          8.731           31.5         -17.69         -5.478         -160.9          63.38         -148.0          68.54          74.03
     0.685              -54.18          29.25          10.45          31.72         -17.71         -5.506         -157.2          63.91         -144.6          69.32          72.51
     0.701               -54.2          29.47          12.65          32.01         -17.73          -5.54         -152.4           64.6         -140.2          70.32          70.56
    0.7169              -54.23          29.75          15.47          32.38         -17.76         -5.585         -146.2          65.47         -134.6          71.59          68.06
    0.7328              -54.27          30.12          19.08          32.85          -17.8         -5.642         -138.3          66.59         -127.4          73.22          64.88
    0.7488              -54.33          30.57          23.62          33.44         -17.84         -5.714         -128.5           68.0         -118.4          75.27          60.87
    0.7647              -54.39          31.13          29.14          34.17         -17.89         -5.801         -116.4          69.72         -107.4          77.77          55.98
    0.7806              -54.46          31.78          35.55           35.0         -17.96         -5.903         -102.4          71.71         -94.68          80.67          50.32
    0.7966              -54.53          32.48          42.49          35.91         -18.03         -6.012         -87.28          73.86         -80.89           83.8          44.18
    0.8125              -54.61          33.18          49.43          36.81          -18.1         -6.122         -72.14          76.02         -67.09          86.94          38.05
    0.8284              -54.68          33.83          55.83          37.65         -18.16         -6.223         -58.16          78.01         -54.35          89.83          32.39
    0.8444              -54.74          34.38          61.36          38.37         -18.21         -6.311          -46.1          79.73         -43.36          92.33           27.5
    0.8603              -54.79          34.84          65.89          38.97         -18.26         -6.382         -36.21          81.13         -34.34          94.38          23.49
    0.8762              -54.83           35.2           69.5          39.44         -18.29         -6.439         -28.34          82.26         -27.17          96.01           20.3
    0.8921              -54.87          35.49          72.33          39.81         -18.32         -6.484         -22.17          83.13         -21.55          97.29          17.81
    0.9081              -54.89          35.71          74.53          40.09         -18.34         -6.519         -17.37          83.82         -17.17          98.28          15.86
     0.924              -54.91          35.89          76.25          40.32         -18.36         -6.546         -13.62          84.35         -13.76          99.06          14.34
    0.9399              -54.92          36.02           77.6           40.5         -18.37         -6.568         -10.67          84.77         -11.07          99.67          13.15
